# xmcd CD database file
#
# Track frame offsets:
#	150
#	19693
#	39924
#	63515
#	82894
#	95390
#	113331
#	141500
#	165894
#	185006
#	209479
#	247050
#	266456
#	282688
#
# Disc length: 4070 seconds
#
# Revision: 1
# Processed by: cddbd v1.5.1PL2 Copyright (c) Steve Scherf et al.
# Submitted via: CDex 1.51
#
DISCID=c00fe40e
DTITLE=RTB Jazz Orchestra feat. Ursula Becker - Love for Sale
DYEAR=2002
DGENRE=Jazz
TTITLE0=Just Like That
TTITLE1=Stormy Weather
TTITLE2=The Groovemaker
TTITLE3=Love For Sale
TTITLE4=A Foggy Day
TTITLE5=These foolish Things
TTITLE6=The Healer
TTITLE7=But Beatiful
TTITLE8=Like A Lover
TTITLE9=Blues In Latin
TTITLE10=Ballard For A Friend
TTITLE11=It Ain't Necessarily So
TTITLE12=Little Feet
TTITLE13=Ground Blues
EXTD=YEAR: 2002
EXTT0=
EXTT1=
EXTT2=
EXTT3=
EXTT4=
EXTT5=
EXTT6=
EXTT7=
EXTT8=
EXTT9=
EXTT10=
EXTT11=
EXTT12=
EXTT13=
PLAYORDER=
